<svg xmlns="http://www.w3.org/2000/svg" version="1.1" xmlns:xlink="http://www.w3.org/1999/xlink" xmlns:svgjs="http://svgjs.dev/svgjs" width="2000" height="1376" viewBox="0 0 2000 1376"><g transform="matrix(1,0,0,1,-0.31087961416676535,0.5570850202428801)"><svg viewBox="0 0 359 247" data-background-color="#c9efc7" preserveAspectRatio="xMidYMid meet" height="1376" width="2000" xmlns="http://www.w3.org/2000/svg" xmlns:xlink="http://www.w3.org/1999/xlink"><g id="tight-bounds" transform="matrix(1,0,0,1,0.05580289074293887,-0.09999999999999432)"><svg viewBox="0 0 358.8883942185141 247.2" height="247.2" width="358.8883942185141"><g><svg viewBox="0 0 395.52 272.4316126546846" height="247.2" width="358.8883942185141"><g transform="matrix(1,0,0,1,0,199.62577378990065)"><svg viewBox="0 0 395.52 72.805838864784" height="72.805838864784" width="395.52"><g id="textblocktransform"><svg viewBox="0 0 395.52 72.805838864784" height="72.805838864784" width="395.52" id="textblock"><g><rect width="75.54432000000001" height="4.343999549040239" y="64.00166782684084" fill="#000000" data-fill-palette-color="tertiary"></rect><rect width="75.54432000000001" height="4.343999549040239" y="64.00166782684084" x="319.97567999999995" fill="#000000" data-fill-palette-color="tertiary"></rect></g><g><svg viewBox="0 0 395.52 48.16976976976976" height="48.16976976976976" width="395.52"><g transform="matrix(1,0,0,1,0,0)"><svg width="395.52" viewBox="4.6 -36 299.67999999999995 36.5" height="48.16976976976976" data-palette-color="#454545"><path d="M34.65-34.3L42.3-34.3 42.3 0 37.4 0 37.4-28.55 37.1-28.55 25.25 0 21.1 0 9.3-28.55 9.05-28.55 9.05 0 4.6 0 4.6-34.3 12.3-34.3 23.35-7.3 23.55-7.3 34.65-34.3ZM61.3-26.05Q64.45-26.05 66.87-24.73 69.3-23.4 70.65-20.95 72-18.5 72-15.25L72-15.25 72-11.7 54.15-11.7Q54.25-7.65 56.05-5.45 57.85-3.25 61.4-3.25L61.4-3.25Q64.55-3.25 66.05-5.1 67.55-6.95 67.55-9.5L67.55-9.5 72-9.5Q72-6.5 70.62-4.25 69.25-2 66.82-0.75 64.4 0.5 61.3 0.5L61.3 0.5 61.1 0.5Q55.7 0.5 52.57-2.98 49.45-6.45 49.45-12.25L49.45-12.25 49.45-13.25Q49.45-17.05 50.85-19.95 52.25-22.85 54.85-24.45 57.45-26.05 60.95-26.05L60.95-26.05 61.3-26.05ZM61.05-22.3Q58.2-22.3 56.42-20.55 54.65-18.8 54.25-15.35L54.25-15.35 67.35-15.35 67.35-15.95Q67.35-18.8 65.62-20.55 63.9-22.3 61.05-22.3L61.05-22.3ZM91.45-26.05Q95.65-26.05 98.05-23.8 100.45-21.55 100.45-17.2L100.45-17.2 100.45 0 95.75 0 95.75-16.35Q95.75-22.3 90.35-22.3L90.35-22.3Q88.55-22.3 87-21.35 85.45-20.4 84.5-18.78 83.55-17.15 83.55-15.2L83.55-15.2 83.55 0 78.85 0 78.85-25.55 82.25-25.55 82.9-21.8Q86.1-26.05 91.45-26.05L91.45-26.05ZM129.34-36L129.34 0 125.84 0Q125.49-1.6 125.19-3.5L125.19-3.5Q122.34 0.5 117.29 0.5L117.29 0.5Q112.49 0.5 109.72-3.05 106.94-6.6 106.94-12.8L106.94-12.8 106.94-13.35Q106.94-19.2 109.67-22.63 112.39-26.05 117.29-26.05L117.29-26.05Q122.04-26.05 124.64-22.3L124.64-22.3 124.64-36 129.34-36ZM118.14-22.3Q114.79-22.3 113.22-19.98 111.64-17.65 111.64-12.75L111.64-12.75Q111.64-7.85 113.24-5.55 114.84-3.25 118.14-3.25L118.14-3.25Q124.69-3.25 124.69-12.75L124.69-12.75Q124.69-17.65 123.04-19.98 121.39-22.3 118.14-22.3L118.14-22.3ZM137.54-36L142.44-36 142.44-31.65 137.54-31.65 137.54-36ZM137.64-25.55L142.34-25.55 142.34 0 137.64 0 137.64-25.55ZM166.29-34.3Q168.74-34.3 170.79-33.18 172.84-32.05 174.06-30.13 175.29-28.2 175.29-25.9L175.29-25.9Q175.29-22.85 173.79-20.8 172.29-18.75 169.29-17.9L169.29-17.9 169.29-17.65Q172.24-17.2 174.16-15 176.09-12.8 176.09-9.35L176.09-9.35Q176.09-6.6 174.76-4.48 173.44-2.35 171.24-1.18 169.04 0 166.59 0L166.59 0 151.09 0 151.09-34.3 166.29-34.3ZM165.29-29.85L155.99-29.85 155.99-19.7 165.29-19.7Q167.29-19.7 168.84-21.15 170.39-22.6 170.39-24.75L170.39-24.75Q170.39-26.85 168.89-28.35 167.39-29.85 165.29-29.85L165.29-29.85ZM165.79-15.25L155.99-15.25 155.99-4.45 165.79-4.45Q168.04-4.45 169.61-6.03 171.19-7.6 171.19-9.85L171.19-9.85Q171.19-12.1 169.61-13.68 168.04-15.25 165.79-15.25L165.79-15.25ZM183.09-36L187.99-36 187.99-31.65 183.09-31.65 183.09-36ZM183.19-25.55L187.89-25.55 187.89 0 183.19 0 183.19-25.55ZM217.03-36L217.03 0 213.53 0Q213.18-1.6 212.88-3.5L212.88-3.5Q210.03 0.5 204.98 0.5L204.98 0.5Q200.18 0.5 197.41-3.05 194.63-6.6 194.63-12.8L194.63-12.8 194.63-13.35Q194.63-19.2 197.36-22.63 200.08-26.05 204.98-26.05L204.98-26.05Q209.73-26.05 212.33-22.3L212.33-22.3 212.33-36 217.03-36ZM205.83-22.3Q202.48-22.3 200.91-19.98 199.33-17.65 199.33-12.75L199.33-12.75Q199.33-7.85 200.93-5.55 202.53-3.25 205.83-3.25L205.83-3.25Q212.38-3.25 212.38-12.75L212.38-12.75Q212.38-17.65 210.73-19.98 209.08-22.3 205.83-22.3L205.83-22.3ZM235.58-26.05Q238.73-26.05 241.16-24.73 243.58-23.4 244.93-20.95 246.28-18.5 246.28-15.25L246.28-15.25 246.28-11.7 228.43-11.7Q228.53-7.65 230.33-5.45 232.13-3.25 235.68-3.25L235.68-3.25Q238.83-3.25 240.33-5.1 241.83-6.95 241.83-9.5L241.83-9.5 246.28-9.5Q246.28-6.5 244.91-4.25 243.53-2 241.11-0.75 238.68 0.5 235.58 0.5L235.58 0.5 235.38 0.5Q229.98 0.5 226.86-2.98 223.73-6.45 223.73-12.25L223.73-12.25 223.73-13.25Q223.73-17.05 225.13-19.95 226.53-22.85 229.13-24.45 231.73-26.05 235.23-26.05L235.23-26.05 235.58-26.05ZM235.33-22.3Q232.48-22.3 230.71-20.55 228.93-18.8 228.53-15.35L228.53-15.35 241.63-15.35 241.63-15.95Q241.63-18.8 239.91-20.55 238.18-22.3 235.33-22.3L235.33-22.3ZM263.18-26.05Q268.23-26.05 270.7-24.05 273.18-22.05 273.18-18.25L273.18-18.25 273.18-5Q273.18-4.1 273.58-3.68 273.98-3.25 274.58-3.25L274.58-3.25Q275.73-3.25 276.88-3.95L276.88-3.95 276.88-0.5Q275.18 0.5 273.03 0.5L273.03 0.5Q270.88 0.5 269.83-0.73 268.78-1.95 268.68-4.1L268.68-4.1Q265.58 0.5 259.73 0.5L259.73 0.5Q255.53 0.5 253.45-1.33 251.38-3.15 251.38-7.1L251.38-7.1Q251.38-10.2 252.98-11.98 254.58-13.75 258.28-14.55 261.98-15.35 268.48-15.35L268.48-15.35 268.48-17.7Q268.48-20.25 266.98-21.28 265.48-22.3 262.63-22.3L262.63-22.3Q259.93-22.3 258.43-21.25 256.93-20.2 256.93-18.3L256.93-18.3 256.93-17.7 252.33-17.7Q252.23-18.4 252.23-19.35L252.23-19.35Q252.23-21.1 253.63-22.65 255.03-24.2 257.43-25.13 259.83-26.05 262.73-26.05L262.73-26.05 263.18-26.05ZM268.48-11.7Q263.23-11.7 260.55-11.18 257.88-10.65 256.98-9.6 256.08-8.55 256.08-6.7L256.08-6.7Q256.08-3.25 261.33-3.25L261.33-3.25Q263.18-3.25 264.83-4.17 266.48-5.1 267.48-6.8 268.48-8.5 268.48-10.7L268.48-10.7 268.48-11.7ZM282.38-36L287.08-36 287.08-11.3 298.48-25.55 303.63-25.55 293.78-13.15 304.28 0 298.58 0 290.93-9.5 287.08-5.5 287.08 0 282.38 0 282.38-36Z" opacity="1" transform="matrix(1,0,0,1,0,0)" fill="#000000" class="wordmark-text-0" data-fill-palette-color="primary" id="text-0"></path></svg></g></svg></g><g transform="matrix(1,0,0,1,75.54432000000001,59.54149633793792)"><svg viewBox="0 0 244.43135999999996 13.264342526846079" height="13.264342526846079" width="244.43135999999996"><g transform="matrix(1,0,0,1,8,0)"><svg width="228.43135999999996" viewBox="5.4 -36.5 754.23 43.8" height="13.264342526846079" data-palette-color="#454545"><path d="M29.3 0L5.4 0 5.4-33 28.55-33 28.55-29.25 9.4-29.25 9.4-18.6 24.3-18.6 24.3-14.85 9.4-14.85 9.4-3.75 29.3-3.75 29.3 0ZM45.6 0.5L45.6 0.5Q43.2 0.5 41.07-0.4 38.95-1.3 37.62-3.33 36.3-5.35 36.3-8.6L36.3-8.6 36.3-25 40.3-25 40.3-9.65Q40.3-5.85 41.95-4.42 43.6-3 46.6-3L46.6-3Q48-3 49.35-3.48 50.7-3.95 51.77-4.98 52.85-6 53.47-7.6 54.1-9.2 54.1-11.4L54.1-11.4 54.1-25 58.1-25 58.1 0 54.6 0 54.35-3.8Q53.05-1.55 50.82-0.53 48.6 0.5 45.6 0.5ZM76.4 0.5L76.4 0.5Q72.75 0.5 69.67-1.05 66.59-2.6 64.95-5.45L64.95-5.45 68.34-7.9Q69.45-5.6 71.57-4.3 73.7-3 76.7-3L76.7-3Q79.34-3 80.84-4.03 82.34-5.05 82.34-6.7L82.34-6.7Q82.34-7.75 81.67-8.63 81-9.5 79.09-9.9L79.09-9.9 73.09-11.15Q69.45-11.9 67.87-13.65 66.3-15.4 66.3-18L66.3-18Q66.3-20.05 67.47-21.75 68.65-23.45 70.82-24.48 73-25.5 75.95-25.5L75.95-25.5Q79.65-25.5 82.2-24.05 84.75-22.6 86-19.95L86-19.95 82.65-17.75Q81.8-19.95 79.9-20.98 78-22 75.95-22L75.95-22Q74.15-22 72.87-21.5 71.59-21 70.92-20.13 70.25-19.25 70.25-18.15L70.25-18.15Q70.25-17.05 71-16.13 71.75-15.2 73.8-14.8L73.8-14.8 80.05-13.5Q83.55-12.8 84.95-11.2 86.34-9.6 86.34-7.3L86.34-7.3Q86.34-4.95 85.09-3.18 83.84-1.4 81.59-0.45 79.34 0.5 76.4 0.5ZM110.64-25L115.69-25 104.89-14.2 103.94-13.25 95.74-5.05 95.74-10.05 110.64-25ZM93.74-36.5L97.74-36.5 97.74 0 93.74 0 93.74-36.5ZM101.89-14L105.24-16.25 116.29 0 111.44 0 101.89-14ZM136.69-9.25L136.69-16.15Q136.69-18.95 135.19-20.48 133.69-22 130.94-22L130.94-22Q128.34-22 126.54-20.88 124.74-19.75 123.89-17.25L123.89-17.25 120.64-19.25Q121.64-22.05 124.34-23.78 127.04-25.5 131.04-25.5L131.04-25.5Q133.74-25.5 135.94-24.58 138.14-23.65 139.41-21.78 140.69-19.9 140.69-16.95L140.69-16.95 140.69-4.85Q140.69-3.05 142.59-3.05L142.59-3.05Q143.54-3.05 144.44-3.3L144.44-3.3 144.24-0.15Q143.24 0.35 141.64 0.35L141.64 0.35Q140.19 0.35 139.04-0.2 137.89-0.75 137.24-1.88 136.59-3 136.59-4.7L136.59-4.7 136.59-5.2 137.59-5.05Q136.99-3.1 135.54-1.88 134.09-0.65 132.29-0.08 130.49 0.5 128.74 0.5L128.74 0.5Q126.54 0.5 124.64-0.25 122.74-1 121.61-2.53 120.49-4.05 120.49-6.3L120.49-6.3Q120.49-9.1 122.36-10.93 124.24-12.75 127.59-13.4L127.59-13.4 137.49-15.35 137.49-12.05 129.44-10.4Q126.99-9.9 125.79-9 124.59-8.1 124.59-6.5L124.59-6.5Q124.59-4.95 125.81-3.98 127.04-3 129.29-3L129.29-3Q130.74-3 132.06-3.38 133.39-3.75 134.44-4.53 135.49-5.3 136.09-6.48 136.69-7.65 136.69-9.25L136.69-9.25ZM150.19-36.5L154.19-36.5 154.19-6.35Q154.19-4.45 154.89-3.73 155.59-3 157.14-3L157.14-3Q158.14-3 158.79-3.15 159.44-3.3 160.54-3.7L160.54-3.7 159.89-0.2Q159.09 0.15 158.14 0.33 157.19 0.5 156.19 0.5L156.19 0.5Q153.14 0.5 151.66-1.15 150.19-2.8 150.19-6.2L150.19-6.2 150.19-36.5ZM186.73 0L182.73 0 182.73-25 186.23-25 186.48-21.1Q187.83-23.4 190.01-24.45 192.18-25.5 194.48-25.5L194.48-25.5Q197.13-25.5 199.48-24.3 201.83-23.1 203.08-20.6L203.08-20.6Q203.88-22.3 205.33-23.38 206.78-24.45 208.51-24.98 210.23-25.5 211.78-25.5L211.78-25.5Q214.18-25.5 216.36-24.5 218.53-23.5 219.93-21.4 221.33-19.3 221.33-16L221.33-16 221.33 0 217.33 0 217.33-15.6Q217.33-19 215.63-20.5 213.93-22 211.43-22L211.43-22Q209.48-22 207.78-21.05 206.08-20.1 205.06-18.25 204.03-16.4 204.03-13.7L204.03-13.7 204.03 0 200.03 0 200.03-15.6Q200.03-19 198.33-20.5 196.63-22 194.13-22L194.13-22Q192.48-22 190.76-21.13 189.03-20.25 187.88-18.35 186.73-16.45 186.73-13.35L186.73-13.35 186.73 0ZM240.83 0.5L240.83 0.5Q237.28 0.5 234.51-1.05 231.73-2.6 230.18-5.53 228.63-8.45 228.63-12.5L228.63-12.5Q228.63-16.55 230.18-19.48 231.73-22.4 234.43-23.95 237.13-25.5 240.58-25.5L240.58-25.5Q244.08-25.5 246.56-24 249.03-22.5 250.33-19.93 251.63-17.35 251.63-14.15L251.63-14.15Q251.63-13.3 251.58-12.6 251.53-11.9 251.43-11.35L251.43-11.35 231.23-11.35 231.23-14.9 249.68-14.9 247.63-14.5Q247.63-18.1 245.66-20.05 243.68-22 240.48-22L240.48-22Q238.03-22 236.26-20.88 234.48-19.75 233.51-17.63 232.53-15.5 232.53-12.5L232.53-12.5Q232.53-9.55 233.53-7.4 234.53-5.25 236.36-4.13 238.18-3 240.73-3L240.73-3Q243.48-3 245.21-4.05 246.93-5.1 247.98-6.9L247.98-6.9 251.13-5.05Q250.18-3.35 248.71-2.1 247.23-0.85 245.26-0.18 243.28 0.5 240.83 0.5ZM263.23 0L259.23 0 259.23-25 262.73-25 263.08-19.4 262.43-19.95Q263.23-21.95 264.58-23.18 265.93-24.4 267.7-24.95 269.48-25.5 271.38-25.5L271.38-25.5Q274.08-25.5 276.28-24.48 278.48-23.45 279.8-21.35 281.13-19.25 281.13-16L281.13-16 281.13 0 277.13 0 277.13-14.6Q277.13-18.75 275.35-20.38 273.58-22 270.98-22L270.98-22Q269.18-22 267.38-21.15 265.58-20.3 264.4-18.4 263.23-16.5 263.23-13.3L263.23-13.3 263.23 0ZM299.93 0.5L299.93 0.5Q296.83 0.5 294.23-1.05 291.63-2.6 290.08-5.53 288.53-8.45 288.53-12.5L288.53-12.5Q288.53-16.65 290.18-19.55 291.83-22.45 294.53-23.98 297.23-25.5 300.33-25.5L300.33-25.5Q303.43-25.5 305.7-23.9 307.98-22.3 308.73-19.65L308.73-19.65 308.23-19.3 308.23-36.5 312.23-36.5 312.23 0 308.73 0 308.38-6.05 308.93-6.35Q308.58-4.15 307.25-2.63 305.93-1.1 304-0.3 302.08 0.5 299.93 0.5ZM300.33-3L300.33-3Q302.73-3 304.5-4.2 306.28-5.4 307.25-7.63 308.23-9.85 308.23-12.85L308.23-12.85Q308.23-15.7 307.25-17.75 306.28-19.8 304.55-20.9 302.83-22 300.53-22L300.53-22Q296.73-22 294.63-19.4 292.53-16.8 292.53-12.5L292.53-12.5Q292.53-8.2 294.58-5.6 296.63-3 300.33-3ZM323.52-29.8L323.52-29.8Q322.17-29.8 321.35-30.63 320.52-31.45 320.52-32.8L320.52-32.8Q320.52-34.15 321.35-34.98 322.17-35.8 323.52-35.8L323.52-35.8Q324.87-35.8 325.7-34.98 326.52-34.15 326.52-32.8L326.52-32.8Q326.52-31.45 325.7-30.63 324.87-29.8 323.52-29.8ZM321.52-25L325.52-25 325.52 0 321.52 0 321.52-25ZM349.42-9.25L349.42-16.15Q349.42-18.95 347.92-20.48 346.42-22 343.67-22L343.67-22Q341.07-22 339.27-20.88 337.47-19.75 336.62-17.25L336.62-17.25 333.37-19.25Q334.37-22.05 337.07-23.78 339.77-25.5 343.77-25.5L343.77-25.5Q346.47-25.5 348.67-24.58 350.87-23.65 352.15-21.78 353.42-19.9 353.42-16.95L353.42-16.95 353.42-4.85Q353.42-3.05 355.32-3.05L355.32-3.05Q356.27-3.05 357.17-3.3L357.17-3.3 356.97-0.15Q355.97 0.35 354.37 0.35L354.37 0.35Q352.92 0.35 351.77-0.2 350.62-0.75 349.97-1.88 349.32-3 349.32-4.7L349.32-4.7 349.32-5.2 350.32-5.05Q349.72-3.1 348.27-1.88 346.82-0.65 345.02-0.08 343.22 0.5 341.47 0.5L341.47 0.5Q339.27 0.5 337.37-0.25 335.47-1 334.35-2.53 333.22-4.05 333.22-6.3L333.22-6.3Q333.22-9.1 335.1-10.93 336.97-12.75 340.32-13.4L340.32-13.4 350.22-15.35 350.22-12.05 342.17-10.4Q339.72-9.9 338.52-9 337.32-8.1 337.32-6.5L337.32-6.5Q337.32-4.95 338.55-3.98 339.77-3 342.02-3L342.02-3Q343.47-3 344.8-3.38 346.12-3.75 347.17-4.53 348.22-5.3 348.82-6.48 349.42-7.65 349.42-9.25L349.42-9.25ZM380.02-25L385.07-25 374.27-14.2 373.32-13.25 365.12-5.05 365.12-10.05 380.02-25ZM363.12-36.5L367.12-36.5 367.12 0 363.12 0 363.12-36.5ZM371.27-14L374.62-16.25 385.67 0 380.82 0 371.27-14ZM393.47-6L393.47-6Q394.67-6 395.49-5.38 396.32-4.75 396.77-3.68 397.22-2.6 397.22-1.15L397.22-1.15Q397.22 0.5 396.64 2.1 396.07 3.7 394.87 5.05 393.67 6.4 391.77 7.3L391.77 7.3 389.67 5.35Q391.02 4.9 392.04 4.1 393.07 3.3 393.72 2.3 394.37 1.3 394.57 0.25L394.57 0.25 394.37 0.15Q394.17 0.3 393.87 0.4 393.57 0.5 392.97 0.5L392.97 0.5Q392.37 0.5 391.74 0.15 391.12-0.2 390.67-0.88 390.22-1.55 390.22-2.65L390.22-2.65Q390.22-3.55 390.67-4.33 391.12-5.1 391.84-5.55 392.57-6 393.47-6ZM441.11 0L420.01 0 420.01-3.05 433.11-18.4 436.26-21.65 431.81-21.55 420.16-21.55 420.16-25 440.71-25 440.71-21.95 427.61-6.6 424.51-3.35 429.36-3.45 441.11-3.45 441.11 0ZM457.56 0.5L457.56 0.5Q455.16 0.5 453.03-0.4 450.91-1.3 449.58-3.33 448.26-5.35 448.26-8.6L448.26-8.6 448.26-25 452.26-25 452.26-9.65Q452.26-5.85 453.91-4.42 455.56-3 458.56-3L458.56-3Q459.96-3 461.31-3.48 462.66-3.95 463.73-4.98 464.81-6 465.43-7.6 466.06-9.2 466.06-11.4L466.06-11.4 466.06-25 470.06-25 470.06 0 466.56 0 466.31-3.8Q465.01-1.55 462.78-0.53 460.56 0.5 457.56 0.5ZM483.36 0L479.36 0 479.36-25 482.61-25 483.16-20.9Q484.21-23.2 486.23-24.35 488.26-25.5 491.16-25.5L491.16-25.5Q491.81-25.5 492.58-25.4 493.36-25.3 493.91-25L493.91-25 493.21-21.35Q492.66-21.55 492.01-21.65 491.36-21.75 490.16-21.75L490.16-21.75Q488.61-21.75 487.03-20.85 485.46-19.95 484.41-18.13 483.36-16.3 483.36-13.5L483.36-13.5 483.36 0ZM510.2 0.5L510.2 0.5Q506.65 0.5 503.88-1.05 501.1-2.6 499.55-5.53 498-8.45 498-12.5L498-12.5Q498-16.55 499.55-19.48 501.1-22.4 503.8-23.95 506.5-25.5 509.95-25.5L509.95-25.5Q513.45-25.5 515.93-24 518.4-22.5 519.7-19.93 521-17.35 521-14.15L521-14.15Q521-13.3 520.95-12.6 520.9-11.9 520.8-11.35L520.8-11.35 500.6-11.35 500.6-14.9 519.05-14.9 517-14.5Q517-18.1 515.03-20.05 513.05-22 509.85-22L509.85-22Q507.4-22 505.63-20.88 503.85-19.75 502.88-17.63 501.9-15.5 501.9-12.5L501.9-12.5Q501.9-9.55 502.9-7.4 503.9-5.25 505.73-4.13 507.55-3 510.1-3L510.1-3Q512.85-3 514.58-4.05 516.3-5.1 517.35-6.9L517.35-6.9 520.5-5.05Q519.55-3.35 518.08-2.1 516.6-0.85 514.63-0.18 512.65 0.5 510.2 0.5ZM560.25-9.25L560.25-16.15Q560.25-18.95 558.75-20.48 557.25-22 554.5-22L554.5-22Q551.9-22 550.1-20.88 548.3-19.75 547.45-17.25L547.45-17.25 544.2-19.25Q545.2-22.05 547.9-23.78 550.6-25.5 554.6-25.5L554.6-25.5Q557.3-25.5 559.5-24.58 561.7-23.65 562.97-21.78 564.25-19.9 564.25-16.95L564.25-16.95 564.25-4.85Q564.25-3.05 566.15-3.05L566.15-3.05Q567.1-3.05 568-3.3L568-3.3 567.8-0.15Q566.8 0.35 565.2 0.35L565.2 0.35Q563.75 0.35 562.6-0.2 561.45-0.75 560.8-1.88 560.15-3 560.15-4.7L560.15-4.7 560.15-5.2 561.15-5.05Q560.55-3.1 559.1-1.88 557.65-0.65 555.85-0.08 554.05 0.5 552.3 0.5L552.3 0.5Q550.1 0.5 548.2-0.25 546.3-1 545.17-2.53 544.05-4.05 544.05-6.3L544.05-6.3Q544.05-9.1 545.92-10.93 547.8-12.75 551.15-13.4L551.15-13.4 561.05-15.35 561.05-12.05 553-10.4Q550.55-9.9 549.35-9 548.15-8.1 548.15-6.5L548.15-6.5Q548.15-4.95 549.37-3.98 550.6-3 552.85-3L552.85-3Q554.3-3 555.62-3.38 556.95-3.75 558-4.53 559.05-5.3 559.65-6.48 560.25-7.65 560.25-9.25L560.25-9.25ZM586.19 0.5L586.19 0.5Q584.09 0.5 582.29-0.25 580.49-1 579.19-2.35 577.89-3.7 577.24-5.4L577.24-5.4 577.79-6.1 577.44 0 573.94 0 573.94-36.5 577.94-36.5 577.94-19.35 577.44-20.1Q578.44-22.45 580.82-23.98 583.19-25.5 586.24-25.5L586.24-25.5Q589.34-25.5 591.94-23.95 594.54-22.4 596.09-19.5 597.64-16.6 597.64-12.5L597.64-12.5Q597.64-8.45 596.07-5.53 594.49-2.6 591.89-1.05 589.29 0.5 586.19 0.5ZM585.79-3L585.79-3Q589.49-3 591.57-5.6 593.64-8.2 593.64-12.5L593.64-12.5Q593.64-16.8 591.59-19.4 589.54-22 585.84-22L585.84-22Q583.49-22 581.72-20.8 579.94-19.6 578.94-17.45 577.94-15.3 577.94-12.4L577.94-12.4Q577.94-9.55 578.92-7.43 579.89-5.3 581.67-4.15 583.44-3 585.79-3ZM615.74 0.5L615.74 0.5Q612.19 0.5 609.42-1.05 606.64-2.6 605.09-5.53 603.54-8.45 603.54-12.5L603.54-12.5Q603.54-16.55 605.09-19.48 606.64-22.4 609.34-23.95 612.04-25.5 615.49-25.5L615.49-25.5Q618.99-25.5 621.47-24 623.94-22.5 625.24-19.93 626.54-17.35 626.54-14.15L626.54-14.15Q626.54-13.3 626.49-12.6 626.44-11.9 626.34-11.35L626.34-11.35 606.14-11.35 606.14-14.9 624.59-14.9 622.54-14.5Q622.54-18.1 620.57-20.05 618.59-22 615.39-22L615.39-22Q612.94-22 611.17-20.88 609.39-19.75 608.42-17.63 607.44-15.5 607.44-12.5L607.44-12.5Q607.44-9.55 608.44-7.4 609.44-5.25 611.27-4.13 613.09-3 615.64-3L615.64-3Q618.39-3 620.12-4.05 621.84-5.1 622.89-6.9L622.89-6.9 626.04-5.05Q625.09-3.35 623.62-2.1 622.14-0.85 620.17-0.18 618.19 0.5 615.74 0.5ZM638.14 0L634.14 0 634.14-25 637.64-25 637.99-19.4 637.34-19.95Q638.14-21.95 639.49-23.18 640.84-24.4 642.61-24.95 644.39-25.5 646.29-25.5L646.29-25.5Q648.99-25.5 651.19-24.48 653.39-23.45 654.71-21.35 656.04-19.25 656.04-16L656.04-16 656.04 0 652.04 0 652.04-14.6Q652.04-18.75 650.26-20.38 648.49-22 645.89-22L645.89-22Q644.09-22 642.29-21.15 640.49-20.3 639.31-18.4 638.14-16.5 638.14-13.3L638.14-13.3 638.14 0ZM666.99-31L670.99-32.1 670.99-6.9Q670.99-5.05 672.04-4.15 673.09-3.25 674.74-3.25L674.74-3.25Q676.19-3.25 677.24-3.75 678.29-4.25 679.14-5.1L679.14-5.1 680.54-1.75Q679.39-0.7 677.81-0.1 676.24 0.5 674.19 0.5L674.19 0.5Q672.29 0.5 670.64-0.18 668.99-0.85 668.01-2.33 667.04-3.8 666.99-6.2L666.99-6.2 666.99-31ZM661.99-25L680.09-25 680.09-21.55 661.99-21.55 661.99-25ZM695.08 0.5L695.08 0.5Q692.68 0.5 690.56-0.4 688.43-1.3 687.11-3.33 685.78-5.35 685.78-8.6L685.78-8.6 685.78-25 689.78-25 689.78-9.65Q689.78-5.85 691.43-4.42 693.08-3 696.08-3L696.08-3Q697.48-3 698.83-3.48 700.18-3.95 701.26-4.98 702.33-6 702.96-7.6 703.58-9.2 703.58-11.4L703.58-11.4 703.58-25 707.58-25 707.58 0 704.08 0 703.83-3.8Q702.53-1.55 700.31-0.53 698.08 0.5 695.08 0.5ZM720.88 0L716.88 0 716.88-25 720.13-25 720.68-20.9Q721.73-23.2 723.76-24.35 725.78-25.5 728.68-25.5L728.68-25.5Q729.33-25.5 730.11-25.4 730.88-25.3 731.43-25L731.43-25 730.73-21.35Q730.18-21.55 729.53-21.65 728.88-21.75 727.68-21.75L727.68-21.75Q726.13-21.75 724.56-20.85 722.98-19.95 721.93-18.13 720.88-16.3 720.88-13.5L720.88-13.5 720.88 0ZM751.88-9.25L751.88-16.15Q751.88-18.95 750.38-20.48 748.88-22 746.13-22L746.13-22Q743.53-22 741.73-20.88 739.93-19.75 739.08-17.25L739.08-17.25 735.83-19.25Q736.83-22.05 739.53-23.78 742.23-25.5 746.23-25.5L746.23-25.5Q748.93-25.5 751.13-24.58 753.33-23.65 754.6-21.78 755.88-19.9 755.88-16.95L755.88-16.95 755.88-4.85Q755.88-3.05 757.78-3.05L757.78-3.05Q758.73-3.05 759.63-3.3L759.63-3.3 759.43-0.15Q758.43 0.35 756.83 0.35L756.83 0.35Q755.38 0.35 754.23-0.2 753.08-0.75 752.43-1.88 751.78-3 751.78-4.7L751.78-4.7 751.78-5.2 752.78-5.05Q752.18-3.1 750.73-1.88 749.28-0.65 747.48-0.08 745.68 0.5 743.93 0.5L743.93 0.5Q741.73 0.5 739.83-0.25 737.93-1 736.8-2.53 735.68-4.05 735.68-6.3L735.68-6.3Q735.68-9.1 737.55-10.93 739.43-12.75 742.78-13.4L742.78-13.4 752.68-15.35 752.68-12.05 744.63-10.4Q742.18-9.9 740.98-9 739.78-8.1 739.78-6.5L739.78-6.5Q739.78-4.95 741-3.98 742.23-3 744.48-3L744.48-3Q745.93-3 747.25-3.38 748.58-3.75 749.63-4.53 750.68-5.3 751.28-6.48 751.88-7.65 751.88-9.25L751.88-9.25Z" opacity="1" transform="matrix(1,0,0,1,0,0)" fill="#000000" class="slogan-text-1" data-fill-palette-color="secondary" id="text-1"></path></svg></g></svg></g></svg></g></svg></g><g transform="matrix(1,0,0,1,109.31883967321784,0)"><svg viewBox="0 0 176.8823206535643 176.8823206535643" height="176.8823206535643" width="176.8823206535643"><g><svg></svg></g><g id="icon-0"><svg viewBox="0 0 176.8823206535643 176.8823206535643" height="176.8823206535643" width="176.8823206535643"><g><path d="M0 88.441c0-48.845 39.596-88.441 88.441-88.441 48.845 0 88.441 39.596 88.441 88.441 0 48.845-39.596 88.441-88.441 88.441-48.845 0-88.441-39.596-88.441-88.441zM88.441 172.538c46.446 0 84.097-37.652 84.097-84.097 0-46.446-37.652-84.097-84.097-84.097-46.446 0-84.097 37.652-84.097 84.097 0 46.446 37.652 84.097 84.097 84.097z" data-fill-palette-color="tertiary" fill="#000000" stroke="transparent"></path></g><g transform="matrix(1,0,0,1,37.61687656384851,37.61744127183801)"><svg viewBox="0 0 101.64856752586729 101.64743810988828" height="101.64743810988828" width="101.64856752586729"><g><svg xmlns="http://www.w3.org/2000/svg" xmlns:xlink="http://www.w3.org/1999/xlink" version="1.1" x="0" y="0" viewBox="4.967 5 90.001 90" enable-background="new 0 0 100 100" xml:space="preserve" height="101.64743810988828" width="101.64856752586729" class="icon-z$-0" data-fill-palette-color="accent" id="z$-0"><g fill="#454545" data-fill-palette-color="accent"><polygon points="81.588,69.219 76.042,77.733 49.901,5 30.566,58.797 24.486,43.546 4.967,95 17.555,95 45,95 64.794,95 82.249,95    94.968,95  " fill="#000000" data-fill-palette-color="accent"></polygon></g></svg></g></svg></g></svg></g></svg></g><g></g></svg></g><defs></defs></svg><rect width="358.8883942185141" height="247.2" fill="none" stroke="none" visibility="hidden"></rect></g></svg></g></svg>